# xmcd
#
# Track frame offsets:
#	150
#	21200
#	40150
#	58751
#	83061
#	97752
#	110293
#	125544
#	141304
#	161915
#	182176
#	213806
#	243676
#	262017
#
# Disc length: 3730 seconds
#
# Revision: 2
# Processed by: cddbd v1.5.2PL0 Copyright (c) Steve Scherf et al.
# Submitted via: audiograbber 1.83.01
#
DISCID=c40e900e
DTITLE=Raul Malo - Around The World
DYEAR=2012
DGENRE=Country
TTITLE0=Indian Love Cell
TTITLE1=L'Appuntamento
TTITLE2=Every Little Thing About You
TTITLE3=Lucky One
TTITLE4=Let It Be Me
TTITLE5=Make The World Go Away
TTITLE6=La Vie En Rose
TTITLE7=I Said I Love You
TTITLE8=Besame Mucho
TTITLE9=A Man Without Love
TTITLE10=Moonlight Kiss
TTITLE11=Dance The Night Away
TTITLE12=Guantanamera
TTITLE13=Around The World
EXTD=
EXTT0=
EXTT1=
EXTT2=
EXTT3=
EXTT4=
EXTT5=
EXTT6=
EXTT7=
EXTT8=
EXTT9=
EXTT10=
EXTT11=
EXTT12=
EXTT13=
PLAYORDER=
